<svg width="71" height="71" viewBox="0 0 71 71" fill="none" xmlns="http://www.w3.org/2000/svg">
<path fill-rule="evenodd" clip-rule="evenodd" d="M37.619 4.83336C36.8622 4.77749 36.1035 4.7495 35.3446 4.74946V0.333344C36.2126 0.333767 37.0802 0.366174 37.9458 0.430498L37.619 4.83336ZM46.4694 6.82062C45.0537 6.27436 43.5998 5.83303 42.1193 5.5002L43.0865 1.19007C44.7779 1.56986 46.4429 2.07329 48.0593 2.70038L46.4694 6.82062V6.82062ZM52.5198 9.95606C51.8884 9.53498 51.2417 9.13726 50.581 8.76371L52.7583 4.92169C54.2683 5.77724 55.7134 6.74255 57.0819 7.80982L54.3659 11.2941C53.7671 10.827 53.1513 10.3822 52.5198 9.96047V9.95606ZM60.6194 17.8609C59.7458 16.6199 58.7819 15.4449 57.7355 14.3457L60.933 11.2986C62.1254 12.5571 63.2295 13.9041 64.232 15.3172L60.6194 17.8609V17.8609ZM63.9052 23.8315C63.6153 23.1313 63.3001 22.442 62.9601 21.7647L66.9039 19.7775C67.6838 21.3279 68.3481 22.9339 68.8912 24.5822L64.6957 25.9645C64.4584 25.244 64.1947 24.5326 63.9052 23.8315V23.8315ZM66.2458 34.9027C66.2101 33.385 66.0625 31.8721 65.8042 30.3762L70.1543 29.6254C70.4502 31.33 70.6225 33.0612 70.6666 34.7923L66.2503 34.9027H66.2458ZM65.6673 41.6947C65.813 40.9439 65.9323 40.1976 66.025 39.4425L70.4105 39.9856C70.1983 41.7086 69.8588 43.4135 69.3947 45.0862L65.1373 43.9071C65.3405 43.1785 65.5172 42.441 65.6673 41.6947V41.6947ZM61.4629 52.2006C62.2755 50.9199 62.991 49.5774 63.6093 48.1908L67.6458 49.9793C66.9392 51.5691 66.1222 53.0971 65.1948 54.5632L61.4629 52.2006ZM57.2056 57.522C57.7444 56.9833 58.2611 56.4268 58.7513 55.8527L62.0989 58.7365C61.532 59.3937 60.9413 60.0301 60.3279 60.6442L57.2056 57.522V57.522Z" fill="#4E84D5"/>
<path fill-rule="evenodd" clip-rule="evenodd" d="M35.3447 4.74946C30.2609 4.74983 25.2557 6.00384 20.7723 8.40043C16.289 10.797 12.4659 14.2622 9.64171 18.4891C6.8175 22.716 5.07933 27.5741 4.58117 32.6331C4.083 37.6921 4.84022 42.7959 6.78573 47.4924C8.73125 52.1889 11.805 56.3331 15.7348 59.5581C19.6646 62.783 24.3291 64.9891 29.3151 65.981C34.3012 66.9728 39.4549 66.7198 44.3198 65.2443C49.1847 63.7688 53.6107 61.1164 57.2056 57.522L60.328 60.6442C56.2196 64.7546 51.1607 67.7883 45.5996 69.4764C40.0385 71.1645 34.1468 71.455 28.4466 70.3221C22.7464 69.1891 17.4136 66.6677 12.9208 62.9813C8.42802 59.295 4.9139 54.5574 2.68982 49.1883C0.465737 43.8193 -0.399636 37.9846 0.170374 32.2012C0.740383 26.4178 2.72818 20.8643 5.95763 16.0327C9.18708 11.2011 13.5585 7.24064 18.6845 4.50217C23.8105 1.7637 29.5329 0.331803 35.3447 0.333345V4.74946Z" fill="#2B3C54"/>
<path fill-rule="evenodd" clip-rule="evenodd" d="M33.1364 13.5817C33.722 13.5817 34.2837 13.8143 34.6978 14.2284C35.1119 14.6425 35.3446 15.2041 35.3446 15.7897V38.7977L49.6889 46.994C50.1826 47.2918 50.5403 47.7709 50.6854 48.3289C50.8305 48.8869 50.7516 49.4796 50.4655 49.9802C50.1794 50.4808 49.7089 50.8496 49.1545 51.0079C48.6 51.1662 48.0056 51.1013 47.4984 50.8272L32.0411 41.9949C31.7032 41.8019 31.4222 41.523 31.2268 41.1864C31.0314 40.8498 30.9283 40.4676 30.9282 40.0784V15.7897C30.9282 15.2041 31.1609 14.6425 31.575 14.2284C31.9891 13.8143 32.5508 13.5817 33.1364 13.5817V13.5817Z" fill="#4E84D5"/>
</svg>
