<svg width="290" height="71" viewBox="0 0 290 71" fill="none" xmlns="http://www.w3.org/2000/svg">
<path fill-rule="evenodd" clip-rule="evenodd" d="M37.619 4.83336C36.8622 4.77749 36.1035 4.7495 35.3446 4.74946V0.333344C36.2126 0.333767 37.0802 0.366174 37.9458 0.430498L37.619 4.83336ZM46.4694 6.82062C45.0537 6.27436 43.5998 5.83303 42.1193 5.5002L43.0865 1.19007C44.7779 1.56986 46.4429 2.07329 48.0593 2.70038L46.4694 6.82062ZM52.5198 9.95606C51.8884 9.53498 51.2417 9.13726 50.581 8.76371L52.7583 4.92169C54.2683 5.77724 55.7134 6.74255 57.0819 7.80982L54.3659 11.2941C53.7671 10.8271 53.1513 10.3822 52.5198 9.96047V9.95606ZM60.6194 17.8609C59.7458 16.6199 58.7819 15.4449 57.7355 14.3457L60.933 11.2986C62.1254 12.5571 63.2295 13.9041 64.232 15.3172L60.6194 17.8609ZM63.9052 23.8315C63.6153 23.1313 63.3001 22.442 62.9601 21.7647L66.9039 19.7775C67.6838 21.3279 68.3481 22.9339 68.8912 24.5822L64.6957 25.9645C64.4584 25.244 64.1947 24.5326 63.9052 23.8315ZM66.2458 34.9027C66.2101 33.385 66.0625 31.8721 65.8042 30.3762L70.1543 29.6254C70.4502 31.33 70.6225 33.0612 70.6666 34.7923L66.2503 34.9027H66.2458ZM65.6673 41.6947C65.813 40.9439 65.9323 40.1976 66.025 39.4425L70.4105 39.9856C70.1983 41.7086 69.8588 43.4135 69.3947 45.0862L65.1373 43.9071C65.3405 43.1785 65.5172 42.441 65.6673 41.6947ZM61.4629 52.2006C62.2755 50.9199 62.991 49.5774 63.6093 48.1908L67.6458 49.9793C66.9392 51.5691 66.1222 53.0971 65.1948 54.5632L61.4629 52.2006ZM57.2056 57.522C57.7444 56.9833 58.2611 56.4268 58.7513 55.8527L62.0989 58.7365C61.532 59.3937 60.9413 60.0301 60.3279 60.6442L57.2056 57.522Z" fill="#4E84D5"/>
<path fill-rule="evenodd" clip-rule="evenodd" d="M35.3447 4.74946C30.2609 4.74983 25.2557 6.00384 20.7723 8.40043C16.289 10.797 12.4659 14.2622 9.64171 18.4891C6.8175 22.716 5.07933 27.5741 4.58117 32.6331C4.083 37.6921 4.84022 42.7959 6.78574 47.4924C8.73125 52.1889 11.805 56.3331 15.7348 59.5581C19.6646 62.783 24.3291 64.9891 29.3151 65.981C34.3012 66.9728 39.4549 66.7198 44.3198 65.2443C49.1847 63.7688 53.6107 61.1164 57.2056 57.522L60.328 60.6442C56.2196 64.7546 51.1607 67.7883 45.5996 69.4764C40.0385 71.1646 34.1468 71.455 28.4466 70.3221C22.7464 69.1891 17.4136 66.6677 12.9208 62.9813C8.42802 59.295 4.9139 54.5574 2.68982 49.1883C0.465737 43.8193 -0.399636 37.9846 0.170374 32.2012C0.740383 26.4178 2.72818 20.8643 5.95763 16.0327C9.18708 11.2011 13.5585 7.24064 18.6845 4.50217C23.8105 1.7637 29.5329 0.331803 35.3447 0.333345V4.74946Z" fill="#2B3C54"/>
<path fill-rule="evenodd" clip-rule="evenodd" d="M33.1364 13.5817C33.722 13.5817 34.2837 13.8143 34.6978 14.2284C35.1119 14.6425 35.3446 15.2041 35.3446 15.7897V38.7977L49.6889 46.994C50.1826 47.2918 50.5403 47.7709 50.6854 48.3289C50.8305 48.8869 50.7516 49.4796 50.4655 49.9802C50.1794 50.4808 49.7089 50.8496 49.1545 51.0079C48.6 51.1662 48.0056 51.1013 47.4984 50.8272L32.0411 41.9949C31.7032 41.8019 31.4222 41.523 31.2268 41.1864C31.0314 40.8498 30.9283 40.4676 30.9282 40.0784V15.7897C30.9282 15.2041 31.1609 14.6425 31.575 14.2284C31.9891 13.8143 32.5508 13.5817 33.1364 13.5817Z" fill="#4E84D5"/>
<path d="M103.264 38.752H109.456C109.456 43.104 108.368 46.448 106.192 48.784C104.016 51.12 100.944 52.288 96.976 52.288C88.24 52.288 83.872 47.152 83.872 36.88V34C83.872 25.904 86.112 20.832 90.592 18.784C92.352 17.952 94.48 17.536 96.976 17.536C100.624 17.536 103.584 18.544 105.856 20.56C108.16 22.544 109.312 25.424 109.312 29.2H103.072C102.72 27.312 102.096 25.888 101.2 24.928C100.304 23.968 98.896 23.488 96.976 23.488C94.736 23.488 93.072 24.192 91.984 25.6C91.216 26.592 90.768 28.288 90.64 30.688C90.576 31.456 90.544 32.496 90.544 33.808V36.784C90.544 40.464 91.056 42.976 92.08 44.32C93.136 45.664 94.768 46.336 96.976 46.336C99.216 46.336 100.752 45.728 101.584 44.512C102.448 43.264 103.008 41.344 103.264 38.752ZM136.212 52H126.036C122.196 52 119.412 51.264 117.684 49.792C115.988 48.288 115.14 45.856 115.14 42.496V17.824H121.812V42.496C121.812 43.84 122.116 44.768 122.724 45.28C123.332 45.792 124.436 46.048 126.036 46.048H136.212V52ZM166.587 33.328V35.92C166.587 41.648 165.499 45.808 163.323 48.4C161.179 50.992 157.723 52.288 152.955 52.288C148.187 52.288 144.731 50.992 142.587 48.4C140.475 45.808 139.419 41.6 139.419 35.776V33.28C139.419 27.968 140.491 24.016 142.635 21.424C144.811 18.832 148.235 17.536 152.907 17.536C157.611 17.536 161.067 18.848 163.275 21.472C165.483 24.096 166.587 28.048 166.587 33.328ZM159.915 35.776V34C159.915 30.928 159.531 28.48 158.763 26.656C157.867 24.544 155.947 23.488 153.003 23.488C150.027 23.488 148.091 24.544 147.195 26.656C146.459 28.384 146.091 30.832 146.091 34V35.776C146.091 39.904 146.667 42.688 147.819 44.128C148.267 44.736 148.923 45.264 149.787 45.712C150.683 46.128 151.739 46.336 152.955 46.336C154.203 46.336 155.259 46.128 156.123 45.712C156.987 45.296 157.659 44.784 158.139 44.176C158.619 43.568 158.987 42.768 159.243 41.776C159.691 40.208 159.915 38.208 159.915 35.776ZM189.702 38.752H195.894C195.894 43.104 194.806 46.448 192.63 48.784C190.454 51.12 187.382 52.288 183.414 52.288C174.678 52.288 170.31 47.152 170.31 36.88V34C170.31 25.904 172.55 20.832 177.03 18.784C178.79 17.952 180.918 17.536 183.414 17.536C187.062 17.536 190.022 18.544 192.294 20.56C194.598 22.544 195.75 25.424 195.75 29.2H189.51C189.158 27.312 188.534 25.888 187.638 24.928C186.742 23.968 185.334 23.488 183.414 23.488C181.174 23.488 179.51 24.192 178.422 25.6C177.654 26.592 177.206 28.288 177.078 30.688C177.014 31.456 176.982 32.496 176.982 33.808V36.784C176.982 40.464 177.494 42.976 178.518 44.32C179.574 45.664 181.206 46.336 183.414 46.336C185.654 46.336 187.19 45.728 188.022 44.512C188.886 43.264 189.446 41.344 189.702 38.752ZM216.986 33.904L228.746 52H220.97L212.906 39.088L208.25 45.328V52H201.578V17.824H208.25V36.928L221.162 17.824H227.882L216.986 33.904ZM256.012 52H243.916C240.076 52 237.372 51.344 235.804 50.032C234.268 48.688 233.5 46.336 233.5 42.976V17.824H256.012V23.776H240.172V31.792H251.26L250.78 37.744H240.172V42.496C240.172 43.84 240.476 44.768 241.084 45.28C241.692 45.792 242.796 46.048 244.396 46.048H256.012V52ZM288.434 52H280.706L274.034 39.328H269.234V52H262.562V25.168C262.562 22.608 263.154 20.752 264.338 19.6C265.522 18.416 267.506 17.824 270.29 17.824H275.954C279.346 17.824 282.034 18.864 284.018 20.944C286.034 22.992 287.042 25.6 287.042 28.768C287.042 31.072 286.434 33.072 285.218 34.768C284.034 36.432 282.562 37.584 280.802 38.224L288.434 52ZM275.522 33.76C276.93 33.76 278.082 33.28 278.978 32.32C279.906 31.328 280.37 30.112 280.37 28.672C280.37 27.2 279.922 26.016 279.026 25.12C278.162 24.224 276.994 23.776 275.522 23.776H272.21C270.226 23.776 269.234 24.784 269.234 26.8V33.76H275.522Z" fill="#2B3C54"/>
</svg>
